<svg clip-rule="evenodd" fill-rule="evenodd" stroke-linejoin="round" stroke-miterlimit="2" viewBox="0 0 560 120" xmlns="http://www.w3.org/2000/svg"><g transform="matrix(2.92683 0 0 2.92683 100 30)"><path d="m3.3 0h-3.3v26.5h3.3zm40.1 6.9c-3.3 0-5.9 1.7-7.3 4-1.1 1.8-1.5 3.8-1.5 6.1 0 2.7.8 5.2 2.4 7.1 1.5 1.7 3.7 2.9 6.4 2.9 1.8 0 3.5-.5 4.9-1.5 1.6-1.1 2.7-2.8 3-4.7h-3.2c-.2 1-.6 1.6-1.1 2.1-.8.8-2.1 1.3-3.6 1.3s-2.7-.5-3.5-1.4c-1.2-1.2-1.9-3.1-1.9-4.8h13.7v-1.9c0-2.6-.9-5.1-2.5-6.7-1.3-1.6-3.3-2.5-5.8-2.5zm-5.3 8.3c.1-2.8 1.8-5.6 5.3-5.6 1.7 0 3 .7 3.8 1.7s1.2 2.5 1.2 3.9zm24.9-8.1c-2.2 0-4.6 1.1-5.8 3l-.6-2.5h-2.5v26.4h3.2v-9.6c1 1.7 3.5 2.7 5.6 2.7 2.2 0 4-.8 5.3-1.9 2-1.8 2.9-4.8 2.9-8.1 0-3.1-.9-6.1-2.8-7.9-1.1-1.4-2.9-2.1-5.3-2.1zm-.5 17.3c-1.4 0-2.3-.6-3.1-1.3-1.6-1.4-2.2-3.7-2.2-6.1s.5-4.7 2.2-6.1c.8-.7 1.7-1.3 3.1-1.3 4.3 0 5.4 3.8 5.4 7.3 0 3.7-1.1 7.5-5.4 7.5zm12.5-13.5c1.4-2.3 4-4 7.3-4 2.5 0 4.5.9 5.9 2.4 1.6 1.7 2.5 4.2 2.5 6.7v1.9h-13.8c0 1.7.7 3.6 1.9 4.8.9.9 2.1 1.4 3.5 1.4 1.5 0 2.8-.4 3.6-1.3.5-.5.9-1.1 1.1-2.1h3.2c-.3 1.9-1.4 3.6-3 4.7-1.4.9-3.1 1.5-4.9 1.5-2.8 0-5-1.1-6.4-2.9-1.6-1.8-2.4-4.4-2.4-7.1 0-2.2.4-4.2 1.5-6zm7.3-1.3c-3.5 0-5.2 2.8-5.3 5.6h10.3c0-1.4-.4-2.9-1.2-3.9s-2.1-1.7-3.8-1.7zm19.3-2.7c-3.3 0-6 1.7-7.3 4-1.1 1.8-1.5 3.8-1.5 6.1 0 2.7.8 5.2 2.4 7.1 1.5 1.7 3.7 2.9 6.4 2.9 1.8 0 3.5-.5 4.9-1.5 1.6-1.1 2.7-2.8 3-4.7h-3.2c-.2 1-.6 1.6-1.1 2.1-.8.8-2.1 1.3-3.6 1.3s-2.7-.5-3.5-1.4c-1.2-1.2-1.9-3.1-1.9-4.8h13.8v-1.9c0-2.6-.9-5.1-2.5-6.7-1.4-1.6-3.4-2.5-5.9-2.5zm-5.3 8.3c.1-2.8 1.8-5.6 5.3-5.6 1.7 0 3 .7 3.8 1.7s1.2 2.5 1.2 3.9zm26.7-5.3-.7-2.3-6.8 2.4-.6-2.5h-2.5v19.1h3.2v-13.6zm-116.4-2.5h3.3v19.1h-3.3zm3.7-7.4h-3.7v3.6h3.7z"/><path d="m16.8 7.4h-3.7v3.6h3.7zm8.5 0h-3.7v3.6h3.7zm0 15.7h-3.7v3.6h3.7zm4.7-15.7h3.7v3.6h-3.7zm-4.1 7.9h3.7v3.6h-3.7zm-4.8 0h-3.7v3.6h3.7z" fill="#131418"/></g></svg>