<svg width="207" height="198" viewBox="0 0 207 198" fill="none" xmlns="http://www.w3.org/2000/svg">
<path d="M1.07777 130.422V153.953H5.06735V145.005H13.8382V141.307H5.06735V134.099H16.984V130.422H1.07777ZM34.9163 147.99V136.385H30.8226V145.172C30.8226 147.083 30.5309 148.443 29.9528 149.255C29.3746 150.068 28.5101 150.474 27.359 150.474C26.4632 150.474 25.7653 150.198 25.2549 149.651C24.7444 149.104 24.4944 148.328 24.4944 147.323V136.385H20.4007V147.99C20.4007 149.99 20.8746 151.536 21.833 152.635C22.7861 153.734 24.1351 154.286 25.8694 154.286C27.0413 154.286 28.0257 153.964 28.8278 153.323C29.6299 152.682 30.1663 151.766 30.4424 150.573H30.8694L31.1246 154.12L37.3382 153.953V150.641L34.9163 150.276V147.99ZM49.4684 136.057C48.0986 136.057 47.0674 136.344 46.3746 136.927C45.6871 137.505 45.2757 138.385 45.1403 139.568H44.6871L44.333 136.385H40.6507V153.953H44.7444V144.74C44.7444 141.49 45.9684 139.87 48.4215 139.87C49.3069 139.87 49.9944 140.156 50.4788 140.729C50.9632 141.302 51.208 142.12 51.208 143.182V153.953H55.3017V142.521C55.3017 140.464 54.7913 138.875 53.7757 137.745C52.7601 136.62 51.3226 136.057 49.4684 136.057ZM70.2184 149.297C69.6299 150.135 68.6767 150.557 67.3486 150.557C66.0778 150.557 65.1194 150.109 64.4684 149.214C63.8121 148.318 63.4892 147 63.4892 145.255C63.4892 143.484 63.8174 142.13 64.484 141.193C65.1455 140.255 66.0986 139.781 67.3486 139.781C68.5882 139.781 69.5205 140.208 70.1507 141.052C70.7809 141.896 71.0934 143.193 71.0934 144.937V145.422C71.0934 147.167 70.8017 148.458 70.2184 149.297ZM71.0934 139.568H70.6976C70.5205 138.422 70.0674 137.547 69.3382 136.948C68.609 136.354 67.5986 136.057 66.3069 136.057C64.0621 136.057 62.3434 136.844 61.1455 138.427C59.9476 140.005 59.3434 142.281 59.3434 145.255C59.3434 148.182 59.9476 150.417 61.1455 151.964C62.3434 153.51 64.0569 154.286 66.2913 154.286C67.5621 154.286 68.583 153.99 69.3538 153.391C70.1299 152.792 70.5934 151.922 70.7496 150.771H71.1142L71.6246 154.12L75.1871 153.953V129.094H71.0934V139.568ZM88.7444 133.849C89.5309 133.849 90.1767 133.594 90.6819 133.089C91.1924 132.578 91.4476 131.932 91.4476 131.151C91.4476 130.365 91.1924 129.719 90.6819 129.208C90.1767 128.703 89.5309 128.448 88.7444 128.448C87.958 128.448 87.3121 128.703 86.8069 129.208C86.2965 129.719 86.0413 130.365 86.0413 131.151C86.0413 131.932 86.2965 132.578 86.8069 133.089C87.3121 133.594 87.958 133.849 88.7444 133.849ZM90.9476 140.099V136.385H81.2861V140.099H86.8746V150.24H80.2913V153.953H96.234V150.24H90.9476V140.099ZM109.13 136.057C107.76 136.057 106.729 136.344 106.041 136.927C105.349 137.505 104.937 138.385 104.802 139.568H104.349L103.994 136.385H100.312V153.953H104.406V144.74C104.406 141.49 105.63 139.87 108.083 139.87C108.968 139.87 109.656 140.156 110.14 140.729C110.625 141.302 110.869 142.12 110.869 143.182V153.953H114.963V142.521C114.963 140.464 114.453 138.875 113.437 137.745C112.422 136.62 110.984 136.057 109.13 136.057ZM129.88 149.297C129.291 150.135 128.338 150.557 127.01 150.557C125.739 150.557 124.781 150.109 124.13 149.214C123.474 148.318 123.151 147 123.151 145.255C123.151 143.484 123.479 142.13 124.145 141.193C124.807 140.255 125.76 139.781 127.01 139.781C128.25 139.781 129.182 140.208 129.812 141.052C130.442 141.896 130.755 143.193 130.755 144.937V145.422C130.755 147.167 130.463 148.458 129.88 149.297ZM130.802 139.568H130.526C130.349 138.422 129.88 137.547 129.125 136.948C128.369 136.354 127.317 136.057 125.968 136.057C123.724 136.057 122.005 136.844 120.807 138.427C119.609 140.005 119.005 142.281 119.005 145.255C119.005 148.182 119.609 150.417 120.807 151.964C122.005 153.51 123.718 154.286 125.953 154.286C127.224 154.286 128.244 153.99 129.015 153.391C129.791 152.792 130.255 151.922 130.411 150.771H130.755V152.927C130.744 154.594 130.369 155.854 129.63 156.714C128.89 157.568 127.703 158.026 126.067 158.078L120.432 158.245L120.599 161.875L125.734 161.708C128.906 161.599 131.218 160.802 132.672 159.318C134.125 157.828 134.849 155.521 134.849 152.396V136.385H131.088L130.802 139.568ZM164.125 150.38C163.526 150.443 162.968 150.474 162.453 150.474C160.869 150.474 159.739 150.161 159.052 149.547C158.369 148.927 158.026 147.937 158.026 146.578V140.099H165.895V136.385H158.026V131.083H153.948V136.385H149.656V140.099H153.948V146.911C153.948 149.484 154.588 151.359 155.869 152.531C157.151 153.698 159.234 154.286 162.119 154.286C162.916 154.286 163.666 154.25 164.38 154.187C165.093 154.12 165.817 154.021 166.562 153.885L166.161 150.141C165.401 150.24 164.718 150.323 164.125 150.38ZM179.984 136.057C178.614 136.057 177.583 136.344 176.895 136.927C176.203 137.505 175.791 138.385 175.661 139.568H175.26V129.094H171.166V153.953H175.26V144.573C175.26 141.38 176.484 139.786 178.942 139.786C179.823 139.786 180.51 140.062 180.994 140.62C181.479 141.177 181.724 141.974 181.724 143.016V153.953H185.817V142.521C185.817 140.464 185.307 138.875 184.291 137.745C183.276 136.62 181.838 136.057 179.984 136.057ZM194.359 143.911C194.484 142.75 194.823 141.812 195.38 141.109C196.099 140.203 197.104 139.75 198.395 139.75C199.578 139.75 200.5 140.109 201.161 140.828C201.828 141.547 202.156 142.573 202.156 143.911H194.359ZM206.067 144.589C206.067 141.818 205.401 139.703 204.057 138.245C202.713 136.786 200.817 136.052 198.364 136.052C195.823 136.052 193.854 136.849 192.453 138.443C191.057 140.031 190.359 142.266 190.359 145.135C190.359 148.089 191.182 150.349 192.828 151.922C194.474 153.495 196.807 154.286 199.823 154.286C200.515 154.286 201.317 154.255 202.213 154.203C203.119 154.146 204.114 154.021 205.208 153.823L204.776 150.042C204.005 150.187 203.244 150.302 202.5 150.38C201.75 150.464 200.989 150.505 200.218 150.505C198.328 150.505 196.869 150.036 195.843 149.089C195.213 148.51 194.776 147.766 194.531 146.859H205.968C206.036 146.151 206.067 145.396 206.067 144.589ZM17.9528 170.693H17.2757C15.2861 170.693 13.6194 171.724 12.2809 173.797C10.9424 175.865 10.0049 178.865 9.4736 182.792C8.89027 187.12 8.95798 190.328 9.67152 192.422C10.3903 194.521 11.7809 195.568 13.8538 195.568H14.4476L23.4059 187.568L22.1299 196.724C21.3642 196.854 20.5726 196.969 19.7653 197.062C18.9528 197.156 18.1507 197.24 17.3538 197.318C16.5569 197.401 15.7965 197.458 15.0674 197.5C14.3382 197.536 13.6819 197.557 13.0986 197.557C10.8121 197.557 8.80173 197.229 7.06735 196.562C5.32777 195.901 3.90589 194.937 2.80693 193.677C1.70798 192.417 0.94235 190.891 0.515268 189.099C0.0933916 187.307 0.0413096 185.297 0.359018 183.073C0.676726 180.87 1.30693 178.875 2.24964 177.099C3.19235 175.323 4.39027 173.807 5.85381 172.562C7.31214 171.312 9.01006 170.359 10.9476 169.698C12.8851 169.031 14.9944 168.698 17.2757 168.698C17.9111 168.698 18.6038 168.729 19.3434 168.781C20.0882 168.833 20.8382 168.906 21.5934 169C22.3486 169.094 23.0986 169.214 23.8434 169.359C24.5882 169.505 25.2757 169.656 25.9163 169.812L24.6403 178.812L17.9528 170.693ZM39.4476 178.255C38.1455 178.255 37.0413 178.99 36.1246 180.464C35.208 181.937 34.5621 184.052 34.1924 186.812C33.8226 189.547 33.8746 191.63 34.3538 193.062C34.8278 194.495 35.7288 195.208 37.0569 195.208C38.4111 195.208 39.5413 194.479 40.4424 193.021C41.3434 191.562 41.9788 189.427 42.3538 186.615C42.6976 183.906 42.6246 181.839 42.1351 180.401C41.6403 178.969 40.7496 178.255 39.4476 178.255ZM26.708 186.734C26.9476 185.115 27.4371 183.635 28.1819 182.297C28.9267 180.953 29.8694 179.807 31.0101 178.849C32.1507 177.896 33.4632 177.156 34.9476 176.641C36.4371 176.125 38.0413 175.865 39.7653 175.865C41.4892 175.865 43.0257 176.13 44.3642 176.661C45.7028 177.193 46.8121 177.932 47.6871 178.891C48.5621 179.844 49.1871 180.984 49.5569 182.312C49.9267 183.641 49.9944 185.115 49.7549 186.734C49.5153 188.349 49.0257 189.828 48.2809 191.172C47.5413 192.51 46.5986 193.656 45.458 194.615C44.3174 195.568 43.0049 196.307 41.5153 196.823C40.0309 197.339 38.4267 197.599 36.7028 197.599C34.9736 197.599 33.4424 197.339 32.1038 196.823C30.7653 196.307 29.6559 195.568 28.7809 194.615C27.9007 193.656 27.2809 192.516 26.9059 191.187C26.5361 189.865 26.4736 188.375 26.708 186.734ZM75.4319 182.156C75.484 182.714 75.4684 183.297 75.3903 183.906C75.3903 184.068 75.3694 184.276 75.3278 184.542C75.2913 184.807 75.2236 185.276 75.1299 185.937C75.0361 186.599 74.9059 187.542 74.734 188.76C74.5621 189.984 74.3174 191.641 73.9944 193.74L76.0257 197.12H66.1142C66.5413 194.417 66.8746 192.312 67.1142 190.812C67.3486 189.312 67.5309 188.203 67.6507 187.49C67.7653 186.771 67.8434 186.339 67.8694 186.193C67.8955 186.047 67.9059 185.948 67.9059 185.896C68.1976 183.776 68.1976 182.281 67.9059 181.417C67.6142 180.557 66.9632 180.125 65.958 180.125C65.3486 180.125 64.7028 180.276 64.0257 180.583C63.3486 180.891 62.6507 181.344 61.9371 181.953L60.2653 193.74L62.2965 197.12H50.1142L52.9788 193.698L54.734 180.922L52.9007 177.615L62.8538 175.589L62.333 179.01C64.1663 177.5 66.1299 176.62 68.2288 176.38C68.4371 176.354 68.6559 176.344 68.8799 176.344H69.5413C72.6194 176.344 74.4736 177.51 75.1142 179.844C76.4371 178.599 77.7444 177.698 79.0309 177.141C80.3174 176.583 81.734 176.318 83.2705 176.344C85.3121 176.37 86.8017 176.88 87.7288 177.875C88.6559 178.87 89.1246 180.521 89.1246 182.833C89.1246 183.099 89.109 183.401 89.083 183.745C89.0569 184.094 89.0049 184.641 88.9215 185.401C88.8434 186.156 88.7132 187.187 88.5257 188.505C88.3382 189.818 88.0882 191.562 87.7705 193.74L89.8017 197.12H79.8486L81.5205 186.453C81.6819 185.26 81.7809 184.255 81.8174 183.448C81.859 182.641 81.8069 181.99 81.6611 181.5C81.5153 181.005 81.2809 180.656 80.9632 180.443C80.6455 180.229 80.234 180.125 79.7288 180.125C78.4007 180.125 76.9684 180.802 75.4319 182.156ZM116.312 182.156C116.364 182.714 116.349 183.297 116.27 183.906C116.27 184.068 116.25 184.276 116.208 184.542C116.172 184.807 116.104 185.276 116.01 185.937C115.916 186.599 115.786 187.542 115.614 188.76C115.442 189.984 115.198 191.641 114.875 193.74L116.906 197.12H106.994C107.422 194.417 107.75 192.312 107.989 190.812C108.229 189.312 108.411 188.203 108.531 187.49C108.645 186.771 108.718 186.339 108.75 186.193C108.77 186.047 108.786 185.948 108.786 185.896C109.078 183.776 109.078 182.281 108.786 181.417C108.494 180.557 107.843 180.125 106.838 180.125C106.224 180.125 105.583 180.276 104.906 180.583C104.229 180.891 103.531 181.344 102.817 181.953L101.145 193.74L103.172 197.12H90.9944L93.859 193.698L95.609 180.922L93.7809 177.615L103.729 175.589L103.213 179.01C105.047 177.5 107.01 176.62 109.104 176.38C109.317 176.354 109.536 176.344 109.76 176.344H110.422C113.494 176.344 115.354 177.51 115.989 179.844C117.317 178.599 118.625 177.698 119.911 177.141C121.198 176.583 122.614 176.318 124.151 176.344C126.192 176.37 127.682 176.88 128.609 177.875C129.536 178.87 130.005 180.521 130.005 182.833C130.005 183.099 129.989 183.401 129.963 183.745C129.937 184.094 129.885 184.641 129.802 185.401C129.724 186.156 129.593 187.187 129.406 188.505C129.218 189.818 128.968 191.562 128.651 193.74L130.677 197.12H120.729L122.401 186.453C122.557 185.26 122.661 184.255 122.698 183.448C122.739 182.641 122.687 181.99 122.541 181.5C122.39 181.005 122.161 180.656 121.843 180.443C121.526 180.229 121.114 180.125 120.609 180.125C119.281 180.125 117.849 180.802 116.312 182.156ZM146.64 178.255C145.343 178.255 144.234 178.99 143.317 180.464C142.401 181.937 141.76 184.052 141.385 186.812C141.015 189.547 141.067 191.63 141.547 193.062C142.026 194.495 142.927 195.208 144.255 195.208C145.609 195.208 146.734 194.479 147.635 193.021C148.536 191.562 149.177 189.427 149.547 186.615C149.89 183.906 149.817 181.839 149.328 180.401C148.838 178.969 147.942 178.255 146.64 178.255ZM133.906 186.734C134.14 185.115 134.635 183.635 135.375 182.297C136.119 180.953 137.062 179.807 138.203 178.849C139.343 177.896 140.656 177.156 142.14 176.641C143.63 176.125 145.234 175.865 146.958 175.865C148.682 175.865 150.218 176.13 151.557 176.661C152.895 177.193 154.005 177.932 154.88 178.891C155.755 179.844 156.38 180.984 156.75 182.312C157.125 183.641 157.187 185.115 156.953 186.734C156.713 188.349 156.218 189.828 155.479 191.172C154.734 192.51 153.791 193.656 152.651 194.615C151.51 195.568 150.198 196.307 148.708 196.823C147.224 197.339 145.619 197.599 143.895 197.599C142.172 197.599 140.635 197.339 139.297 196.823C137.958 196.307 136.849 195.568 135.974 194.615C135.099 193.656 134.474 192.516 134.104 191.187C133.729 189.865 133.666 188.375 133.906 186.734ZM176.734 176.344C177.979 176.344 179.015 176.531 179.838 176.901C180.661 177.271 181.291 177.854 181.729 178.651C182.166 179.448 182.432 180.474 182.526 181.734C182.619 183 182.547 184.531 182.307 186.333L181.192 193.74L183.224 197.12H173.349L175.062 185.854C175.354 183.734 175.359 182.25 175.083 181.401C174.802 180.547 174.161 180.125 173.151 180.125C171.849 180.125 170.5 180.734 169.088 181.953L167.416 193.74L169.448 197.12H157.307L160.177 193.698L161.927 180.922L160.093 177.615L170.005 175.589L169.489 179.01C170.63 178.083 171.776 177.396 172.932 176.958C174.088 176.521 175.354 176.318 176.734 176.344ZM204.994 184.505L198.906 178.812C198.744 178.76 198.583 178.729 198.427 178.729H197.869C196.093 178.729 195.135 179.266 195.005 180.323C194.953 180.75 195.015 181.125 195.203 181.458C195.39 181.792 195.666 182.104 196.036 182.391C196.411 182.687 196.849 182.964 197.354 183.229C197.854 183.495 198.385 183.76 198.942 184.026C199.687 184.396 200.437 184.786 201.192 185.198C201.948 185.609 202.619 186.094 203.203 186.651C203.786 187.208 204.239 187.859 204.557 188.604C204.875 189.344 204.953 190.224 204.797 191.229C204.609 192.557 204.119 193.63 203.323 194.453C202.526 195.276 201.578 195.922 200.479 196.385C199.375 196.849 198.203 197.167 196.953 197.339C195.708 197.51 194.567 197.599 193.531 197.599C192.52 197.599 191.343 197.536 189.989 197.422C188.635 197.302 187.255 197.109 185.849 196.844L186.963 189.026L193.052 194.766C193.265 194.766 193.468 194.76 193.672 194.75C193.869 194.734 194.073 194.714 194.286 194.687C195.057 194.557 195.687 194.344 196.177 194.052C196.666 193.76 196.942 193.385 196.994 192.932C197.047 192.589 196.979 192.276 196.797 191.995C196.609 191.719 196.343 191.443 196 191.177C195.651 190.911 195.25 190.661 194.786 190.422C194.317 190.182 193.823 189.932 193.291 189.661C192.52 189.292 191.739 188.891 190.942 188.469C190.145 188.042 189.437 187.542 188.812 186.969C188.192 186.401 187.703 185.734 187.359 184.979C187.015 184.219 186.922 183.323 187.083 182.286C187.375 180.214 188.52 178.62 190.526 177.5C192.531 176.385 195.187 175.828 198.505 175.828C199.781 175.828 201.067 175.911 202.369 176.089C203.666 176.266 204.901 176.51 206.067 176.833L204.994 184.505ZM95.4424 86.375C94.9944 86.8281 94.5882 87.3177 94.2132 87.8333C94.1559 87.9062 94.0986 87.9739 94.0465 88.0521C93.7028 88.5521 93.3955 89.0729 93.1194 89.625C93.0674 89.7239 93.0205 89.8281 92.9736 89.9323C92.7132 90.4843 92.4892 91.0625 92.3174 91.6562C92.2913 91.7448 92.2705 91.8385 92.2444 91.9323C92.0205 92.7604 91.8851 93.6198 91.8382 94.5104C91.833 94.6927 91.8121 94.8698 91.8121 95.0521V95.0989C91.8121 95.1146 91.8069 95.1302 91.8069 95.1458C91.8069 96 91.8955 96.8385 92.0621 97.6406C92.0882 97.7812 92.1351 97.9166 92.1663 98.0521C92.208 98.2135 92.2444 98.375 92.2913 98.5364C92.3174 98.6354 92.3382 98.7343 92.3642 98.8333C92.5257 99.3437 92.7288 99.8333 92.9476 100.312C92.9944 100.411 93.0413 100.51 93.0882 100.604C93.3278 101.089 93.5882 101.557 93.8799 102C93.8955 102.026 93.9111 102.052 93.9267 102.078C94.1038 102.339 94.2965 102.589 94.4944 102.833C94.5257 102.875 94.5569 102.922 94.5882 102.964C94.5986 102.974 94.6038 102.984 94.609 102.99C94.8486 103.281 95.1038 103.562 95.3694 103.833C95.3955 103.859 95.4163 103.891 95.4424 103.917C95.6715 104.141 95.9111 104.354 96.1559 104.562C96.208 104.609 96.2601 104.661 96.3121 104.708C96.3121 104.708 96.3174 104.708 96.3174 104.714C96.8121 105.12 97.3434 105.479 97.8955 105.807H97.9007C97.9059 105.812 97.9111 105.818 97.9215 105.823C98.609 106.229 99.3434 106.573 100.104 106.844C100.114 106.844 100.119 106.849 100.119 106.849C101.406 107.302 102.781 107.557 104.218 107.557C104.619 107.557 105.01 107.542 105.401 107.5C105.786 107.464 106.161 107.406 106.531 107.333H106.536C106.557 107.333 106.578 107.328 106.599 107.328C106.713 107.302 106.833 107.276 106.948 107.25L106.953 107.245C107.13 107.203 107.307 107.161 107.479 107.109C107.583 107.083 107.687 107.057 107.786 107.031C107.807 107.026 107.828 107.021 107.854 107.016C107.869 107.01 107.89 107.005 107.911 107C107.916 107 107.922 106.995 107.927 106.995C108.526 106.807 109.093 106.562 109.645 106.297C109.666 106.286 109.687 106.276 109.703 106.266C110.312 105.964 110.895 105.615 111.442 105.224C111.5 105.182 111.547 105.141 111.604 105.104C112.093 104.74 112.567 104.349 113 103.917C119.64 97.276 130.401 97.276 137.041 103.917C139.291 106.167 142.395 107.557 145.817 107.557C152.661 107.557 158.234 101.99 158.234 95.1458C158.234 88.3021 152.661 82.7343 145.817 82.7343C142.395 82.7343 139.291 84.1198 137.041 86.3698C130.401 93.0052 119.64 93.0052 113 86.3698V86.375C112.994 86.375 112.994 86.3698 112.994 86.3698H112.989H113C111.364 84.7343 110.14 82.8489 109.323 80.8333C108.916 79.8281 108.609 78.7916 108.406 77.7343C108.203 76.6823 108.099 75.6146 108.099 74.5416C108.099 73.4739 108.203 72.401 108.406 71.3489C109.02 68.1875 110.552 65.1666 113 62.7187" fill="black"/>
<path d="M113 62.7135C119.64 56.0781 130.401 56.0781 137.041 62.7135C139.286 64.9687 142.396 66.3541 145.817 66.3541C152.661 66.3541 158.234 60.7864 158.234 53.9375C158.234 47.0937 152.661 41.526 145.817 41.526C142.396 41.526 139.286 42.9114 137.041 45.1614C130.401 51.7969 119.64 51.7969 113 45.1614C113 45.1614 112.588 44.7864 112.375 44.6041C112.286 44.526 112.208 44.4427 112.114 44.3646C111.869 44.1614 111.604 43.9687 111.338 43.7864C111.276 43.7396 111.224 43.6927 111.161 43.651C110.849 43.4375 110.526 43.2448 110.198 43.0625C110.177 43.0521 110.156 43.0364 110.135 43.026C109.843 42.8698 109.541 42.7291 109.239 42.5937C109.177 42.5677 109.114 42.5312 109.052 42.5052C108.718 42.3646 108.38 42.2396 108.036 42.1302C107.994 42.1146 107.953 42.0989 107.911 42.0833C107.677 42.0104 107.437 41.9583 107.203 41.901C107.041 41.8594 106.885 41.8125 106.718 41.776C106.661 41.7656 106.599 41.7604 106.536 41.75C105.786 41.6094 105.01 41.526 104.224 41.526H104.125C100.703 41.526 97.5934 42.9114 95.3486 45.1614C88.708 51.7969 77.9424 51.7969 71.307 45.1614C71.3018 45.1562 71.3122 45.1562 71.307 45.1614C64.7757 38.6302 64.7757 28.0416 71.307 21.5104C71.307 21.5052 71.3018 21.5052 71.307 21.5V21.5104C77.9424 14.8698 88.708 14.8698 95.3486 21.5104C97.5934 23.7604 100.703 25.1458 104.125 25.1458C110.968 25.1458 116.541 19.5781 116.541 12.7291C116.541 5.8854 110.968 0.317688 104.125 0.317688C100.703 0.317688 97.5934 1.7031 95.3486 3.9531C88.708 10.5937 77.9424 10.5937 71.307 3.9531C69.057 1.7031 65.9528 0.317688 62.5309 0.317688C55.682 0.317688 50.1143 5.8854 50.1143 12.7291C50.1143 16.1562 51.4997 19.2604 53.7497 21.5104C60.2809 28.0416 60.2809 38.6302 53.7497 45.1614C51.5049 47.4062 50.1143 50.5208 50.1143 53.9375C50.1143 57.3594 51.5049 60.4583 53.7497 62.7083C60.2809 69.2396 60.2809 79.8385 53.7497 86.3698C53.7497 86.3698 52.6715 87.5677 52.234 88.2135C52.1872 88.2864 52.1455 88.3646 52.0986 88.4427C51.4945 89.3698 51.0101 90.3802 50.6715 91.4583C50.6663 91.4896 50.6611 91.5156 50.6507 91.5416C50.5413 91.9062 50.4424 92.276 50.3695 92.651C50.359 92.6979 50.3538 92.7552 50.3434 92.8073C50.2757 93.1562 50.2132 93.5156 50.1768 93.8802C50.1403 94.2656 50.1195 94.6562 50.1195 95.0521C50.1195 95.0833 50.1143 95.1146 50.1143 95.1458C50.1143 96 50.2028 96.8385 50.3695 97.6406C50.4268 97.9479 50.5101 98.2396 50.5986 98.5364C50.6247 98.6354 50.6455 98.7344 50.6715 98.8333C51.0205 99.9531 51.5309 101 52.1611 101.958C52.1872 101.995 52.208 102.036 52.234 102.078C52.4424 102.385 52.6663 102.677 52.8955 102.964C52.9163 102.984 52.932 103.01 52.9476 103.031C53.1559 103.281 53.3747 103.516 53.5986 103.745C53.6507 103.802 53.6976 103.859 53.7497 103.917C54.6715 104.839 55.7393 105.604 56.9163 106.203C56.9788 106.234 57.0413 106.266 57.1038 106.297C57.6299 106.552 58.1715 106.781 58.7393 106.964C58.7705 106.974 58.807 106.99 58.8382 107C58.8799 107.016 58.9215 107.021 58.9632 107.031C59.0622 107.057 59.1663 107.083 59.2705 107.109C59.4424 107.156 59.6195 107.203 59.7965 107.25C59.9163 107.276 60.0309 107.302 60.1507 107.323C60.1715 107.328 60.1924 107.333 60.2132 107.333C60.2132 107.339 60.2184 107.339 60.2184 107.339C60.5934 107.406 60.9684 107.464 61.3486 107.5C61.7393 107.536 62.1299 107.562 62.5309 107.562C64.0257 107.562 65.4528 107.281 66.7861 106.792C68.1143 106.302 69.3434 105.609 70.4163 104.724H70.4216V104.719C70.9111 104.312 71.359 103.865 71.7809 103.391C71.8434 103.323 71.9059 103.255 71.9684 103.187C72.3643 102.724 72.7184 102.234 73.0413 101.719C73.1038 101.62 73.1611 101.526 73.2184 101.427C73.5257 100.901 73.8018 100.354 74.0361 99.7864C74.0674 99.6979 74.0986 99.6094 74.1299 99.5208C74.3591 98.9166 74.557 98.2916 74.6872 97.6458C74.8538 96.8385 74.9424 96 74.9424 95.1458C74.9424 93.8594 74.7445 92.625 74.3799 91.4583C74.3747 91.4375 74.3695 91.4166 74.3591 91.3958C74.1976 90.8802 73.9893 90.3802 73.7601 89.8906C73.708 89.7864 73.6611 89.6875 73.6091 89.5833C73.1924 88.75 71.5674 86.6354 71.2966 86.3698C64.7705 79.8385 64.7757 69.25 71.307 62.7135H71.2966C71.3018 62.7135 71.3018 62.7083 71.307 62.7083V62.7135C77.9424 56.0781 88.708 56.0781 95.3486 62.7135L95.6611 63C95.8226 63.1562 95.7393 63.0781 95.9059 63.2291C98.1976 65.6875 99.5466 68.5989 100.088 71.6979V71.7239C100.177 72.2291 100.239 72.7344 100.281 73.2396C100.281 73.2812 100.281 73.3125 100.286 73.3541C100.323 73.8333 100.338 74.3125 100.328 74.7969C100.328 74.8646 100.323 74.9323 100.323 75.0052C100.307 75.4531 100.286 75.901 100.234 76.3489C100.224 76.4583 100.203 76.5677 100.187 76.6771C100.14 77.0833 100.078 77.4896 99.9945 77.8958C99.9684 78.0416 99.9268 78.1823 99.8903 78.3281C99.807 78.6927 99.7184 79.0625 99.6091 79.4219C99.557 79.6041 99.4841 79.7812 99.4216 79.9635C99.3122 80.2812 99.208 80.6041 99.0778 80.9219C98.9893 81.1354 98.8799 81.3489 98.7809 81.5625C98.6559 81.8333 98.5361 82.1094 98.3955 82.375C98.2653 82.625 98.1091 82.8646 97.9632 83.1094C97.8278 83.3333 97.708 83.5573 97.5622 83.776C97.3695 84.0677 97.1559 84.3437 96.9424 84.6198C96.8174 84.7864 96.708 84.9531 96.5778 85.1146C96.2236 85.5469 95.8486 85.9739 95.4424 86.375M145.979 25.1458C152.823 25.1458 158.39 19.5781 158.39 12.7291C158.39 5.8854 152.823 0.317688 145.979 0.317688C139.13 0.317688 133.562 5.8854 133.562 12.7291C133.562 19.5781 139.13 25.1458 145.979 25.1458Z" fill="black"/>
<path d="M145.979 89.6041C142.922 89.6041 140.438 92.0885 140.438 95.1458C140.438 98.2031 142.922 100.687 145.979 100.687C149.031 100.687 151.521 98.2031 151.521 95.1458C151.521 92.0885 149.031 89.6041 145.979 89.6041Z" fill="#00F839"/>
<path d="M62.5257 7.19269C59.4736 7.19269 56.9893 9.67706 56.9893 12.7291C56.9893 15.7864 59.4736 18.2708 62.5257 18.2708C65.583 18.2708 68.0674 15.7864 68.0674 12.7291C68.0674 9.67706 65.583 7.19269 62.5257 7.19269ZM62.5257 89.6041C59.4736 89.6041 56.9893 92.0885 56.9893 95.1458C56.9893 98.2031 59.4736 100.687 62.5257 100.687C65.583 100.687 68.0674 98.2031 68.0674 95.1458C68.0674 92.0885 65.583 89.6041 62.5257 89.6041Z" fill="#00F8F2"/>
<path d="M104.224 48.0625C101.167 48.0625 98.6826 50.5469 98.6826 53.6041C98.6826 56.6614 101.167 59.1458 104.224 59.1458C107.276 59.1458 109.766 56.6614 109.766 53.6041C109.766 50.5469 107.276 48.0625 104.224 48.0625ZM145.979 7.19269C142.922 7.19269 140.438 9.67706 140.438 12.7291C140.438 15.7864 142.922 18.2708 145.979 18.2708C149.032 18.2708 151.521 15.7864 151.521 12.7291C151.521 9.67706 149.032 7.19269 145.979 7.19269Z" fill="#00F839"/>
</svg>
